<svg xmlns="http://www.w3.org/2000/svg" width="139.999" height="17.092" viewBox="0 0 139.999 17.092">
    <defs>
        <style>
            .cls-1{fill:#fff}
        </style>
    </defs>
    <g id="white_swatchon_logo" transform="translate(-98.09 -486.001)">
        <g id="그룹_388" transform="translate(98.09 486.001)">
            <path id="패스_75" d="M549.255 499.287a5.583 5.583 0 1 1-.16-9.573l.265.154 2.13-2.128-.4-.271a8.548 8.548 0 1 0 .172 14.033l.385-.275-2.124-2.106z" class="cls-1" transform="translate(-468.111 -486.001)"/>
            <path id="패스_76" d="M447.789 489.131h4.968v14.1h3.532v-14.1h4.957V486.2H447.79z" class="cls-1" transform="translate(-392.386 -486.171)"/>
            <path id="패스_77" d="M655.889 486.134v6.756h-9.07v-6.736h-3.532v17.028h3.532v-6.759h9.07v6.74h3.532v-17.028z" class="cls-1" transform="translate(-556.911 -486.113)"/>
            <path id="패스_78" d="M886.754 486.215a7.922 7.922 0 0 0-8.19 8.006v9.017h3.471v-8.68c0-3.146 1.853-5.18 4.72-5.18 2.805 0 4.689 2.082 4.689 5.18v8.68h3.469v-9.017a7.906 7.906 0 0 0-8.159-8.006z" class="cls-1" transform="translate(-754.914 -486.181)"/>
            <path id="패스_79" d="M764.185 486a8.546 8.546 0 1 0 8.546 8.546 8.555 8.555 0 0 0-8.546-8.546zm5.582 8.546a5.582 5.582 0 1 1-5.582-5.582 5.588 5.588 0 0 1 5.582 5.583z" class="cls-1" transform="translate(-651.464 -486.001)"/>
            <path id="패스_80" d="M105.616 493.3l-2-.71c-1.452-.515-2.158-1.122-2.158-1.858a2.307 2.307 0 0 1 2.516-2.005 2.4 2.4 0 0 1 2.46 1.7l.126.753 3.022-.381-.147-.794a5.318 5.318 0 0 0-5.461-4c-3.054 0-5.539 2.12-5.539 4.726 0 1.346.7 3.2 4.051 4.389l1.978.712c1.188.419 2.552 1.042 2.552 2.141a2.677 2.677 0 0 1-2.911 2.346 2.761 2.761 0 0 1-2.914-2.162l-.075-.755-3.02.191.08.8c.264 2.608 2.869 4.651 5.929 4.651 3.272 0 5.934-2.273 5.934-5.066-.005-2.064-1.492-3.637-4.423-4.678z" class="cls-1" transform="translate(-98.09 -486.009)"/>
        </g>
        <g id="그룹_389" transform="translate(111.133 487.804)">
            <path id="패스_81" d="M214.364 497.9l-7.76 7.76-7.769-7.77-7.817 7.817-8.283-8.326-2.319 2.4 10.6 10.6 7.816-7.816 7.769 7.77 6.171-6.159 3.928-3.976z" class="cls-1" transform="translate(-180.416 -497.383)"/>
            <path id="패스_82" d="M418.132 535.7l-6.065-5.986-2.322 2.352 6.083 6z" class="cls-1" transform="translate(-373.413 -524.594)"/>
        </g>
    </g>
</svg>
